<?xml version="1.0" standalone="no"?>
<!DOCTYPE svg PUBLIC "-//W3C//DTD SVG 20010904//EN"
 "http://www.w3.org/TR/2001/REC-SVG-20010904/DTD/svg10.dtd">
<svg version="1.0" xmlns="http://www.w3.org/2000/svg"
 width="132.000000pt" height="102.000000pt" viewBox="0 0 132.000000 102.000000"
 preserveAspectRatio="xMidYMid meet">
<metadata>
Created by potrace 1.10, written by Peter Selinger 2001-2011
</metadata>
<g transform="translate(0.000000,102.000000) scale(0.100000,-0.100000)"
fill="#898989" stroke="none">
<path d="M72 1004 c-31 -22 -30 -69 3 -90 18 -12 39 -15 75 -12 59 6 80 21 80
59 0 37 -33 59 -90 59 -25 0 -56 -7 -68 -16z"/>
<path d="M360 1000 c-24 -24 -25 -49 -6 -76 12 -16 29 -20 118 -22 57 -2 109
-9 116 -14 18 -15 15 -62 -6 -81 -16 -15 -48 -17 -245 -17 l-227 0 -17 -26
c-15 -24 -15 -29 -2 -53 l15 -26 180 -5 c193 -5 214 -11 214 -56 0 -46 -22
-54 -143 -54 -128 0 -157 -11 -157 -60 0 -50 28 -60 170 -60 136 0 150 -5 150
-51 0 -46 -23 -59 -103 -59 l-72 0 -43 -160 c-24 -88 -40 -165 -37 -170 4 -6
60 -10 129 -10 94 0 126 3 135 14 7 8 45 140 86 293 41 153 78 286 83 297 5
13 32 -70 89 -284 45 -167 88 -307 95 -311 7 -5 46 -9 85 -9 64 0 74 3 87 23
19 31 269 974 261 986 -9 16 -158 14 -177 -1 -9 -8 -47 -131 -94 -310 -44
-164 -81 -298 -84 -298 -3 0 -40 135 -84 299 -43 165 -83 304 -89 310 -7 7
-81 11 -209 11 -185 0 -199 -1 -218 -20z"/>
<path d="M33 558 c-44 -21 -41 -82 4 -99 59 -22 102 59 51 95 -26 18 -26 18
-55 4z"/>
</g>
</svg>
